<mxfile host="Electron" agent="Mozilla/5.0 (Windows NT 10.0; Win64; x64) AppleWebKit/537.36 (KHTML, like Gecko) draw.io/26.0.16 Chrome/132.0.6834.196 Electron/34.2.0 Safari/537.36" version="26.0.16">
  <diagram name="Page-1" id="JASlPtxUhEXTCOpTRk4-">
    <mxGraphModel dx="1187" dy="646" grid="1" gridSize="10" guides="1" tooltips="1" connect="1" arrows="1" fold="1" page="1" pageScale="1" pageWidth="1169" pageHeight="827" math="0" shadow="0">
      <root>
        <mxCell id="0" />
        <mxCell id="1" parent="0" />
        <mxCell id="OWAZxywOodAXQ0xux--A-131" value="" style="group;movable=0;resizable=0;rotatable=0;deletable=0;editable=0;locked=1;connectable=0;" vertex="1" connectable="0" parent="1">
          <mxGeometry x="80" y="50" width="351" height="430" as="geometry" />
        </mxCell>
        <mxCell id="OWAZxywOodAXQ0xux--A-7" value="" style="endArrow=none;html=1;rounded=0;" edge="1" parent="OWAZxywOodAXQ0xux--A-131">
          <mxGeometry width="50" height="50" relative="1" as="geometry">
            <mxPoint x="51" y="150" as="sourcePoint" />
            <mxPoint x="331" y="150" as="targetPoint" />
          </mxGeometry>
        </mxCell>
        <mxCell id="OWAZxywOodAXQ0xux--A-43" value="" style="endArrow=none;html=1;fontSize=12;rounded=0;" edge="1" parent="OWAZxywOodAXQ0xux--A-131">
          <mxGeometry x="500" y="70" width="50" height="50" as="geometry">
            <mxPoint x="41" y="180" as="sourcePoint" />
            <mxPoint x="61" y="180" as="targetPoint" />
          </mxGeometry>
        </mxCell>
        <mxCell id="OWAZxywOodAXQ0xux--A-44" value="&lt;font style=&quot;font-size: 12px;&quot;&gt;Start . Auto . ci&lt;/font&gt;" style="edgeLabel;html=1;align=center;verticalAlign=middle;resizable=0;points=[];container=0;" vertex="1" connectable="0" parent="OWAZxywOodAXQ0xux--A-43">
          <mxGeometry relative="1" as="geometry">
            <mxPoint x="60" y="-1" as="offset" />
          </mxGeometry>
        </mxCell>
        <mxCell id="OWAZxywOodAXQ0xux--A-53" value="" style="endArrow=none;html=1;fontSize=12;rounded=0;" edge="1" parent="OWAZxywOodAXQ0xux--A-131">
          <mxGeometry x="500" y="70" width="50" height="50" as="geometry">
            <mxPoint x="181" y="180" as="sourcePoint" />
            <mxPoint x="201" y="180" as="targetPoint" />
          </mxGeometry>
        </mxCell>
        <mxCell id="OWAZxywOodAXQ0xux--A-54" value="&lt;font style=&quot;font-size: 12px;&quot;&gt;Manu&lt;/font&gt;" style="edgeLabel;html=1;align=center;verticalAlign=middle;resizable=0;points=[];container=0;" vertex="1" connectable="0" parent="OWAZxywOodAXQ0xux--A-53">
          <mxGeometry relative="1" as="geometry">
            <mxPoint x="35" y="-1" as="offset" />
          </mxGeometry>
        </mxCell>
        <mxCell id="OWAZxywOodAXQ0xux--A-51" style="edgeStyle=none;rounded=0;orthogonalLoop=1;jettySize=auto;html=1;exitX=0.5;exitY=1;exitDx=0;exitDy=0;endArrow=none;endFill=0;fontSize=12;entryX=0.5;entryY=0;entryDx=0;entryDy=0;" edge="1" parent="OWAZxywOodAXQ0xux--A-131" source="OWAZxywOodAXQ0xux--A-47" target="OWAZxywOodAXQ0xux--A-69">
          <mxGeometry x="730" y="280" as="geometry">
            <mxPoint x="191" y="280" as="targetPoint" />
          </mxGeometry>
        </mxCell>
        <mxCell id="OWAZxywOodAXQ0xux--A-84" style="edgeStyle=orthogonalEdgeStyle;rounded=0;orthogonalLoop=1;jettySize=auto;html=1;" edge="1" parent="OWAZxywOodAXQ0xux--A-131" source="OWAZxywOodAXQ0xux--A-79">
          <mxGeometry relative="1" as="geometry">
            <mxPoint x="191" y="360" as="targetPoint" />
            <Array as="points">
              <mxPoint x="51" y="360" />
            </Array>
          </mxGeometry>
        </mxCell>
        <mxCell id="OWAZxywOodAXQ0xux--A-79" value="4" style="rounded=0;whiteSpace=wrap;html=1;fontSize=20;align=center;startSize=20;container=0;" vertex="1" parent="OWAZxywOodAXQ0xux--A-131">
          <mxGeometry x="31" y="300" width="40" height="40" as="geometry" />
        </mxCell>
        <mxCell id="OWAZxywOodAXQ0xux--A-37" style="edgeStyle=none;rounded=0;orthogonalLoop=1;jettySize=auto;html=1;exitX=0.5;exitY=1;exitDx=0;exitDy=0;endArrow=none;endFill=0;fontSize=12;entryX=0.5;entryY=0;entryDx=0;entryDy=0;" edge="1" parent="OWAZxywOodAXQ0xux--A-131" source="OWAZxywOodAXQ0xux--A-33" target="OWAZxywOodAXQ0xux--A-79">
          <mxGeometry x="590" y="280" as="geometry">
            <mxPoint x="51" y="280" as="targetPoint" />
          </mxGeometry>
        </mxCell>
        <mxCell id="OWAZxywOodAXQ0xux--A-83" value="&lt;font style=&quot;font-size: 18px;&quot;&gt;&quot;A2&quot;&lt;/font&gt;" style="text;html=1;align=center;verticalAlign=middle;resizable=0;points=[];autosize=1;strokeColor=none;fillColor=none;container=0;" vertex="1" parent="OWAZxywOodAXQ0xux--A-131">
          <mxGeometry x="66" y="300" width="60" height="40" as="geometry" />
        </mxCell>
        <mxCell id="OWAZxywOodAXQ0xux--A-114" value="" style="endArrow=none;html=1;fontSize=12;rounded=0;" edge="1" parent="OWAZxywOodAXQ0xux--A-131">
          <mxGeometry x="266" y="-640" width="50" height="50" as="geometry">
            <mxPoint x="321" y="260" as="sourcePoint" />
            <mxPoint x="341" y="260" as="targetPoint" />
          </mxGeometry>
        </mxCell>
        <mxCell id="OWAZxywOodAXQ0xux--A-115" value="Test" style="text;html=1;strokeColor=none;fillColor=none;align=left;verticalAlign=middle;rounded=0;fontSize=12;startSize=20;container=0;" vertex="1" parent="OWAZxywOodAXQ0xux--A-131">
          <mxGeometry x="291" y="250" width="40" height="20" as="geometry" />
        </mxCell>
        <mxCell id="OWAZxywOodAXQ0xux--A-116" style="edgeStyle=orthogonalEdgeStyle;rounded=0;orthogonalLoop=1;jettySize=auto;html=1;exitX=0.5;exitY=1;exitDx=0;exitDy=0;endArrow=classic;endFill=1;fontSize=12;" edge="1" source="OWAZxywOodAXQ0xux--A-117" parent="OWAZxywOodAXQ0xux--A-131">
          <mxGeometry x="266" y="-640" as="geometry">
            <mxPoint x="191" y="360" as="targetPoint" />
            <Array as="points">
              <mxPoint x="331" y="360" />
            </Array>
          </mxGeometry>
        </mxCell>
        <mxCell id="OWAZxywOodAXQ0xux--A-118" style="edgeStyle=orthogonalEdgeStyle;rounded=0;orthogonalLoop=1;jettySize=auto;html=1;endArrow=none;startFill=0;" edge="1" parent="OWAZxywOodAXQ0xux--A-131" source="OWAZxywOodAXQ0xux--A-117">
          <mxGeometry relative="1" as="geometry">
            <mxPoint x="331" y="150" as="targetPoint" />
          </mxGeometry>
        </mxCell>
        <mxCell id="OWAZxywOodAXQ0xux--A-117" value="002" style="rounded=0;whiteSpace=wrap;html=1;fontSize=20;align=center;startSize=20;container=0;" vertex="1" parent="OWAZxywOodAXQ0xux--A-131">
          <mxGeometry x="311" y="200" width="40" height="40" as="geometry" />
        </mxCell>
        <mxCell id="OWAZxywOodAXQ0xux--A-119" value="" style="endArrow=none;html=1;fontSize=12;rounded=0;" edge="1" parent="OWAZxywOodAXQ0xux--A-131">
          <mxGeometry x="500" y="70" width="50" height="50" as="geometry">
            <mxPoint x="321" y="180" as="sourcePoint" />
            <mxPoint x="341" y="180" as="targetPoint" />
          </mxGeometry>
        </mxCell>
        <mxCell id="OWAZxywOodAXQ0xux--A-120" value="&lt;font style=&quot;font-size: 12px;&quot;&gt;Test&lt;/font&gt;" style="edgeLabel;html=1;align=center;verticalAlign=middle;resizable=0;points=[];container=0;" vertex="1" connectable="0" parent="OWAZxywOodAXQ0xux--A-119">
          <mxGeometry relative="1" as="geometry">
            <mxPoint x="35" y="-1" as="offset" />
          </mxGeometry>
        </mxCell>
        <mxCell id="OWAZxywOodAXQ0xux--A-121" value="" style="endArrow=none;html=1;rounded=0;" edge="1" parent="OWAZxywOodAXQ0xux--A-131">
          <mxGeometry width="50" height="50" relative="1" as="geometry">
            <mxPoint x="292.9999999999999" y="252" as="sourcePoint" />
            <mxPoint x="318" y="252" as="targetPoint" />
          </mxGeometry>
        </mxCell>
        <mxCell id="OWAZxywOodAXQ0xux--A-129" value="&lt;font style=&quot;font-size: 24px;&quot;&gt;&lt;b&gt;Grafcet de condite&lt;/b&gt;&lt;/font&gt;" style="text;html=1;align=center;verticalAlign=middle;resizable=0;points=[];autosize=1;fontFamily=Helvetica;fontSize=12;labelBackgroundColor=none;rounded=1;glass=0;labelBorderColor=none;strokeWidth=2;shadow=0;fillStyle=auto;fillColor=#f5f5f5;strokeColor=#666666;fontColor=#333333;container=0;" vertex="1" parent="OWAZxywOodAXQ0xux--A-131">
          <mxGeometry x="66" width="230" height="40" as="geometry" />
        </mxCell>
        <mxCell id="OWAZxywOodAXQ0xux--A-128" style="edgeStyle=orthogonalEdgeStyle;shape=connector;rounded=0;orthogonalLoop=1;jettySize=auto;html=1;exitX=0.5;exitY=0;exitDx=0;exitDy=0;strokeColor=default;align=center;verticalAlign=middle;fontFamily=Helvetica;fontSize=12;fontColor=default;labelBackgroundColor=default;endArrow=none;endFill=1;startFill=1;startArrow=classic;" edge="1" parent="OWAZxywOodAXQ0xux--A-131">
          <mxGeometry relative="1" as="geometry">
            <mxPoint x="191" y="379" as="targetPoint" />
            <mxPoint x="190" y="70" as="sourcePoint" />
            <Array as="points">
              <mxPoint x="190" y="50" />
              <mxPoint y="50" />
              <mxPoint y="430" />
              <mxPoint x="191" y="430" />
              <mxPoint x="191" y="380" />
            </Array>
          </mxGeometry>
        </mxCell>
        <mxCell id="OWAZxywOodAXQ0xux--A-2" value="" style="rounded=0;whiteSpace=wrap;html=1;fontSize=20;align=center;container=0;" vertex="1" parent="OWAZxywOodAXQ0xux--A-131">
          <mxGeometry x="171" y="70" width="40" height="40" as="geometry" />
        </mxCell>
        <mxCell id="OWAZxywOodAXQ0xux--A-3" value="0" style="rounded=0;whiteSpace=wrap;html=1;fontSize=20;align=center;imageWidth=20;imageHeight=20;container=0;" vertex="1" parent="OWAZxywOodAXQ0xux--A-131">
          <mxGeometry x="173" y="72" width="36" height="36" as="geometry" />
        </mxCell>
        <mxCell id="OWAZxywOodAXQ0xux--A-6" style="edgeStyle=none;rounded=0;orthogonalLoop=1;jettySize=auto;html=1;exitX=0.5;exitY=1;exitDx=0;exitDy=0;endArrow=none;endFill=0;fontSize=12;" edge="1" parent="OWAZxywOodAXQ0xux--A-131" source="OWAZxywOodAXQ0xux--A-2">
          <mxGeometry x="640" y="140" as="geometry">
            <mxPoint x="191" y="150" as="targetPoint" />
          </mxGeometry>
        </mxCell>
        <mxCell id="OWAZxywOodAXQ0xux--A-38" style="edgeStyle=orthogonalEdgeStyle;rounded=0;orthogonalLoop=1;jettySize=auto;html=1;exitX=0.5;exitY=0;exitDx=0;exitDy=0;endArrow=none;startFill=0;" edge="1" parent="OWAZxywOodAXQ0xux--A-131" source="OWAZxywOodAXQ0xux--A-33">
          <mxGeometry relative="1" as="geometry">
            <mxPoint x="51" y="150" as="targetPoint" />
          </mxGeometry>
        </mxCell>
        <mxCell id="OWAZxywOodAXQ0xux--A-56" style="edgeStyle=orthogonalEdgeStyle;rounded=0;orthogonalLoop=1;jettySize=auto;html=1;exitX=0.5;exitY=1;exitDx=0;exitDy=0;startArrow=none;startFill=0;targetPerimeterSpacing=4;curved=0;" edge="1" parent="OWAZxywOodAXQ0xux--A-131" source="OWAZxywOodAXQ0xux--A-33">
          <mxGeometry relative="1" as="geometry">
            <mxPoint x="191" y="170" as="targetPoint" />
            <Array as="points">
              <mxPoint x="51" y="260" />
              <mxPoint x="161" y="260" />
              <mxPoint x="161" y="170" />
              <mxPoint x="191" y="170" />
            </Array>
          </mxGeometry>
        </mxCell>
        <mxCell id="OWAZxywOodAXQ0xux--A-33" value="1" style="rounded=0;whiteSpace=wrap;html=1;fontSize=20;align=center;container=0;" vertex="1" parent="OWAZxywOodAXQ0xux--A-131">
          <mxGeometry x="31" y="200" width="40" height="40" as="geometry" />
        </mxCell>
        <mxCell id="OWAZxywOodAXQ0xux--A-35" value="" style="endArrow=none;html=1;fontSize=12;rounded=0;" edge="1" parent="OWAZxywOodAXQ0xux--A-131">
          <mxGeometry x="500" y="270" width="50" height="50" as="geometry">
            <mxPoint x="41" y="283" as="sourcePoint" />
            <mxPoint x="61" y="283" as="targetPoint" />
          </mxGeometry>
        </mxCell>
        <mxCell id="OWAZxywOodAXQ0xux--A-36" value="Stop" style="text;html=1;strokeColor=none;fillColor=none;align=left;verticalAlign=middle;rounded=0;fontSize=12;container=0;" vertex="1" parent="OWAZxywOodAXQ0xux--A-131">
          <mxGeometry x="66" y="273" width="25" height="20" as="geometry" />
        </mxCell>
        <mxCell id="OWAZxywOodAXQ0xux--A-42" value="&lt;font style=&quot;font-size: 18px;&quot;&gt;&quot;F1&quot;&lt;/font&gt;" style="text;html=1;align=center;verticalAlign=middle;resizable=0;points=[];autosize=1;strokeColor=none;fillColor=none;container=0;" vertex="1" parent="OWAZxywOodAXQ0xux--A-131">
          <mxGeometry x="71" y="200" width="60" height="40" as="geometry" />
        </mxCell>
        <mxCell id="OWAZxywOodAXQ0xux--A-46" style="edgeStyle=orthogonalEdgeStyle;rounded=0;orthogonalLoop=1;jettySize=auto;html=1;exitX=0.5;exitY=0;exitDx=0;exitDy=0;endArrow=none;startFill=0;" edge="1" parent="OWAZxywOodAXQ0xux--A-131" source="OWAZxywOodAXQ0xux--A-47">
          <mxGeometry relative="1" as="geometry">
            <mxPoint x="191" y="150" as="targetPoint" />
          </mxGeometry>
        </mxCell>
        <mxCell id="OWAZxywOodAXQ0xux--A-47" value="2" style="rounded=0;whiteSpace=wrap;html=1;fontSize=20;align=center;container=0;" vertex="1" parent="OWAZxywOodAXQ0xux--A-131">
          <mxGeometry x="171" y="200" width="40" height="40" as="geometry" />
        </mxCell>
        <mxCell id="OWAZxywOodAXQ0xux--A-49" value="" style="endArrow=none;html=1;fontSize=12;rounded=0;" edge="1" parent="OWAZxywOodAXQ0xux--A-131">
          <mxGeometry x="640" y="270" width="50" height="50" as="geometry">
            <mxPoint x="181" y="281" as="sourcePoint" />
            <mxPoint x="201" y="281" as="targetPoint" />
          </mxGeometry>
        </mxCell>
        <mxCell id="OWAZxywOodAXQ0xux--A-50" value="Manu" style="text;html=1;strokeColor=none;fillColor=none;align=left;verticalAlign=middle;rounded=0;fontSize=12;container=0;" vertex="1" parent="OWAZxywOodAXQ0xux--A-131">
          <mxGeometry x="206" y="271" width="35" height="20" as="geometry" />
        </mxCell>
        <mxCell id="OWAZxywOodAXQ0xux--A-52" value="&lt;font style=&quot;font-size: 18px;&quot;&gt;&quot;F4&quot;&lt;/font&gt;" style="text;html=1;align=center;verticalAlign=middle;resizable=0;points=[];autosize=1;strokeColor=none;fillColor=none;container=0;" vertex="1" parent="OWAZxywOodAXQ0xux--A-131">
          <mxGeometry x="211" y="200" width="60" height="40" as="geometry" />
        </mxCell>
        <mxCell id="OWAZxywOodAXQ0xux--A-55" value="" style="endArrow=none;html=1;rounded=0;" edge="1" parent="OWAZxywOodAXQ0xux--A-131">
          <mxGeometry width="50" height="50" relative="1" as="geometry">
            <mxPoint x="207.9999999999999" y="273" as="sourcePoint" />
            <mxPoint x="238" y="273" as="targetPoint" />
          </mxGeometry>
        </mxCell>
        <mxCell id="OWAZxywOodAXQ0xux--A-64" style="edgeStyle=orthogonalEdgeStyle;rounded=0;orthogonalLoop=1;jettySize=auto;html=1;exitX=0.5;exitY=1;exitDx=0;exitDy=0;" edge="1" parent="OWAZxywOodAXQ0xux--A-131">
          <mxGeometry relative="1" as="geometry">
            <mxPoint x="311" y="320" as="sourcePoint" />
            <mxPoint x="311" y="320" as="targetPoint" />
          </mxGeometry>
        </mxCell>
        <mxCell id="OWAZxywOodAXQ0xux--A-66" value="" style="endArrow=none;html=1;fontSize=12;rounded=0;" edge="1" parent="OWAZxywOodAXQ0xux--A-131">
          <mxGeometry x="640" y="460.00000000000006" width="50" height="50" as="geometry">
            <mxPoint x="181" y="372.00000000000006" as="sourcePoint" />
            <mxPoint x="201" y="372.00000000000006" as="targetPoint" />
          </mxGeometry>
        </mxCell>
        <mxCell id="OWAZxywOodAXQ0xux--A-67" value="ci" style="text;html=1;strokeColor=none;fillColor=none;align=left;verticalAlign=middle;rounded=0;fontSize=12;startSize=20;container=0;" vertex="1" parent="OWAZxywOodAXQ0xux--A-131">
          <mxGeometry x="207" y="361.00000000000006" width="20" height="20" as="geometry" />
        </mxCell>
        <mxCell id="OWAZxywOodAXQ0xux--A-68" style="edgeStyle=none;rounded=0;orthogonalLoop=1;jettySize=auto;html=1;exitX=0.5;exitY=1;exitDx=0;exitDy=0;endArrow=none;endFill=0;fontSize=12;" edge="1" parent="OWAZxywOodAXQ0xux--A-131" source="OWAZxywOodAXQ0xux--A-69">
          <mxGeometry x="640" y="460.00000000000006" as="geometry">
            <mxPoint x="191" y="380.00000000000006" as="targetPoint" />
          </mxGeometry>
        </mxCell>
        <mxCell id="OWAZxywOodAXQ0xux--A-69" value="3" style="rounded=0;whiteSpace=wrap;html=1;fontSize=20;align=center;startSize=20;container=0;" vertex="1" parent="OWAZxywOodAXQ0xux--A-131">
          <mxGeometry x="171" y="300.00000000000006" width="40" height="40" as="geometry" />
        </mxCell>
        <mxCell id="OWAZxywOodAXQ0xux--A-75" value="&lt;font style=&quot;font-size: 18px;&quot;&gt;&quot;A6&quot;&lt;/font&gt;" style="text;html=1;align=center;verticalAlign=middle;resizable=0;points=[];autosize=1;strokeColor=none;fillColor=none;container=0;" vertex="1" parent="OWAZxywOodAXQ0xux--A-131">
          <mxGeometry x="211" y="300" width="60" height="40" as="geometry" />
        </mxCell>
        <mxCell id="OWAZxywOodAXQ0xux--A-134" value="" style="group;movable=0;resizable=0;rotatable=0;deletable=0;editable=0;locked=1;connectable=0;" vertex="1" connectable="0" parent="1">
          <mxGeometry x="1410" y="10" width="900" height="290" as="geometry" />
        </mxCell>
        <mxCell id="OWAZxywOodAXQ0xux--A-132" value="" style="group;movable=0;resizable=0;rotatable=0;deletable=0;editable=0;locked=1;connectable=0;" vertex="1" connectable="0" parent="OWAZxywOodAXQ0xux--A-134">
          <mxGeometry y="50" width="900" height="240" as="geometry" />
        </mxCell>
        <mxCell id="OWAZxywOodAXQ0xux--A-29" value="" style="group;labelBorderColor=none;fillColor=#dae8fc;strokeColor=light-dark(#000000, #5c79a3);gradientColor=none;strokeWidth=3;perimeterSpacing=0;rounded=0;glass=0;sketch=1;curveFitting=1;jiggle=2;container=0;" vertex="1" connectable="0" parent="OWAZxywOodAXQ0xux--A-132">
          <mxGeometry width="900" height="240" as="geometry" />
        </mxCell>
        <mxCell id="OWAZxywOodAXQ0xux--A-26" value="D2 « Diagnostic et ou traitement de défaillance »" style="text;whiteSpace=wrap;verticalAlign=middle;textOpacity=40;container=0;" vertex="1" parent="OWAZxywOodAXQ0xux--A-132">
          <mxGeometry x="601.3729977116705" y="34.28571428571422" width="298.62700228832944" height="34.28571428571429" as="geometry" />
        </mxCell>
        <mxCell id="OWAZxywOodAXQ0xux--A-12" value="F1 « Production normale »" style="text;whiteSpace=wrap;verticalAlign=middle;container=0;" vertex="1" parent="OWAZxywOodAXQ0xux--A-132">
          <mxGeometry x="37.73584905660391" width="175.05720823798626" height="34.28571428571429" as="geometry" />
        </mxCell>
        <mxCell id="OWAZxywOodAXQ0xux--A-13" value="F2 « Marche de préparation »" style="text;whiteSpace=wrap;fontStyle=0;verticalAlign=middle;textOpacity=40;container=0;" vertex="1" parent="OWAZxywOodAXQ0xux--A-132">
          <mxGeometry x="37.73584905660391" y="34.28571428571422" width="175.05720823798626" height="34.28571428571429" as="geometry" />
        </mxCell>
        <mxCell id="OWAZxywOodAXQ0xux--A-14" value="F3 « Marche de clôture »" style="text;whiteSpace=wrap;verticalAlign=middle;textOpacity=40;container=0;" vertex="1" parent="OWAZxywOodAXQ0xux--A-132">
          <mxGeometry x="37.73584905660391" y="68.57142857142844" width="144.16475972540044" height="34.28571428571429" as="geometry" />
        </mxCell>
        <mxCell id="OWAZxywOodAXQ0xux--A-15" value="F4 « Marche de vérification dans le désordre »" style="text;whiteSpace=wrap;verticalAlign=middle;container=0;" vertex="1" parent="OWAZxywOodAXQ0xux--A-132">
          <mxGeometry x="37.73584905660391" y="102.85714285714266" width="267.7345537757436" height="34.28571428571429" as="geometry" />
        </mxCell>
        <mxCell id="OWAZxywOodAXQ0xux--A-16" value="F5 « Marche de vérification dans l’ordre »" style="text;whiteSpace=wrap;verticalAlign=middle;container=0;" vertex="1" parent="OWAZxywOodAXQ0xux--A-132">
          <mxGeometry x="37.73584905660391" y="137.14285714285734" width="257.43707093821513" height="34.28571428571429" as="geometry" />
        </mxCell>
        <mxCell id="OWAZxywOodAXQ0xux--A-17" value="F6 « Marche de test »" style="text;whiteSpace=wrap;verticalAlign=middle;textOpacity=40;container=0;" vertex="1" parent="OWAZxywOodAXQ0xux--A-132">
          <mxGeometry x="37.73584905660391" y="171.42857142857156" width="154.46224256292902" height="34.28571428571429" as="geometry" />
        </mxCell>
        <mxCell id="OWAZxywOodAXQ0xux--A-18" value="A1 « Arrêt dans l&#39;état initial »" style="text;whiteSpace=wrap;verticalAlign=middle;container=0;" vertex="1" parent="OWAZxywOodAXQ0xux--A-132">
          <mxGeometry x="305.47040283234765" width="195.65217391304344" height="34.28571428571429" as="geometry" />
        </mxCell>
        <mxCell id="OWAZxywOodAXQ0xux--A-19" value="A2 « Arrêt demandé en fin de cycle »" style="text;whiteSpace=wrap;verticalAlign=middle;html=1;container=0;" vertex="1" parent="OWAZxywOodAXQ0xux--A-132">
          <mxGeometry x="305.47040283234765" y="34.28571428571422" width="236.84210526315786" height="34.28571428571429" as="geometry" />
        </mxCell>
        <mxCell id="OWAZxywOodAXQ0xux--A-20" value="A3 « Arrêt demandé dans un état déterminé »" style="text;whiteSpace=wrap;verticalAlign=middle;textOpacity=40;container=0;" vertex="1" parent="OWAZxywOodAXQ0xux--A-132">
          <mxGeometry x="305.47040283234765" y="68.57142857142844" width="288.3295194508009" height="34.28571428571429" as="geometry" />
        </mxCell>
        <mxCell id="OWAZxywOodAXQ0xux--A-21" value="A4 « Arrêt obtenu »" style="text;verticalAlign=middle;labelBorderColor=none;whiteSpace=wrap;fontStyle=0;textOpacity=50;container=0;" vertex="1" parent="OWAZxywOodAXQ0xux--A-132">
          <mxGeometry x="305.47040283234765" y="102.85714285714266" width="144.16475972540044" height="34.28571428571429" as="geometry" />
        </mxCell>
        <mxCell id="OWAZxywOodAXQ0xux--A-22" value="A5 « Préparation pour remise en route après défaillance »" style="text;whiteSpace=wrap;verticalAlign=middle;container=0;" vertex="1" parent="OWAZxywOodAXQ0xux--A-132">
          <mxGeometry x="305.47040283234765" y="137.14285714285734" width="350.1144164759725" height="34.28571428571429" as="geometry" />
        </mxCell>
        <mxCell id="OWAZxywOodAXQ0xux--A-23" value="A6 « Mise de la PO dans l’état initial »" style="text;whiteSpace=wrap;verticalAlign=middle;container=0;" vertex="1" parent="OWAZxywOodAXQ0xux--A-132">
          <mxGeometry x="305.47040283234765" y="171.42857142857156" width="247.13958810068647" height="34.28571428571429" as="geometry" />
        </mxCell>
        <mxCell id="OWAZxywOodAXQ0xux--A-24" value="A7 « Mise de la PO dans un état déterminé »" style="text;whiteSpace=wrap;verticalAlign=middle;textOpacity=40;container=0;" vertex="1" parent="OWAZxywOodAXQ0xux--A-132">
          <mxGeometry x="305.47040283234765" y="205.71428571428578" width="278.0320366132723" height="34.28571428571429" as="geometry" />
        </mxCell>
        <mxCell id="OWAZxywOodAXQ0xux--A-25" value="D1 « Arrêt d’urgence »" style="text;whiteSpace=wrap;verticalAlign=middle;container=0;" vertex="1" parent="OWAZxywOodAXQ0xux--A-132">
          <mxGeometry x="639.1088467682744" width="154.46224256292902" height="34.28571428571429" as="geometry" />
        </mxCell>
        <mxCell id="OWAZxywOodAXQ0xux--A-27" value="D3 « Production tout de même »" style="text;whiteSpace=wrap;verticalAlign=middle;textOpacity=40;container=0;" vertex="1" parent="OWAZxywOodAXQ0xux--A-132">
          <mxGeometry x="639.1088467682744" y="68.57142857142844" width="216.24713958810068" height="34.28571428571429" as="geometry" />
        </mxCell>
        <mxCell id="OWAZxywOodAXQ0xux--A-133" value="&lt;font style=&quot;font-size: 24px;&quot;&gt;&lt;span&gt;Les Modes de la Machine&lt;/span&gt;&lt;/font&gt;" style="text;html=1;align=center;verticalAlign=middle;resizable=0;points=[];autosize=1;strokeColor=#666666;fillColor=#f5f5f5;fontFamily=Helvetica;fontSize=12;labelBackgroundColor=default;fontStyle=1;strokeWidth=4;fontColor=#333333;rounded=1;" vertex="1" parent="OWAZxywOodAXQ0xux--A-134">
          <mxGeometry x="320" width="300" height="40" as="geometry" />
        </mxCell>
      </root>
    </mxGraphModel>
  </diagram>
</mxfile>
